<svg width="292" height="73" viewBox="0 0 292 73" fill="none" xmlns="http://www.w3.org/2000/svg">
<path d="M23.8758 3.26866C23.8758 1.46343 25.3334 0 27.1316 0H30.3873C32.1855 0 33.6431 1.46343 33.6431 3.26866V69.7313C33.6431 71.5366 32.1855 73 30.3873 73H27.1316C25.3334 73 23.8758 71.5366 23.8758 69.7313V3.26866Z" fill="url(#paint0_linear_10_17)"/>
<path d="M7.18587 12.5138C5.9144 11.2373 5.91441 9.16772 7.18587 7.89123L9.48806 5.57995C10.7595 4.30346 12.821 4.30346 14.0924 5.57995L50.5002 42.1317C51.7717 43.4082 51.7717 45.4778 50.5002 46.7543L48.1981 49.0656C46.9266 50.342 44.8651 50.342 43.5937 49.0656L7.18587 12.5138Z" fill="url(#paint1_linear_10_17)"/>
<path d="M43.5937 5.57995C44.8651 4.30346 46.9266 4.30346 48.1981 5.57995L50.5002 7.89124C51.7717 9.16773 51.7717 11.2373 50.5002 12.5138L14.0924 49.0656C12.821 50.342 10.7595 50.342 9.48806 49.0656L7.18587 46.7543C5.9144 45.4778 5.9144 43.4082 7.18587 42.1317L43.5937 5.57995Z" fill="url(#paint2_linear_10_17)"/>
<path d="M54.7442 22.3358C56.5423 22.3358 58 23.7992 58 25.6045V28.8731C58 30.6784 56.5423 32.1418 54.7442 32.1418L3.25578 32.1418C1.45766 32.1418 -7.85981e-08 30.6784 0 28.8731L1.42315e-07 25.6045C2.20914e-07 23.7992 1.45767 22.3358 3.25579 22.3358L54.7442 22.3358Z" fill="url(#paint3_linear_10_17)"/>
<path d="M120.144 27H111.312C111.013 22.3493 107.813 20.024 101.712 20.024C99.28 20.024 97.3387 20.5147 95.888 21.496C94.48 22.4773 93.776 23.8 93.776 25.464C93.776 27.0853 94.3733 28.3013 95.568 29.112C96.7627 29.9227 99.0667 30.648 102.48 31.288L109.648 32.632C113.872 33.4427 116.944 34.8293 118.864 36.792C120.784 38.7547 121.744 41.528 121.744 45.112C121.744 50.0187 119.867 53.752 116.112 56.312C112.869 58.5733 108.496 59.704 102.992 59.704C96.72 59.704 91.9413 58.2533 88.656 55.352C85.7973 52.8347 84.24 49.336 83.984 44.856H93.136C93.4773 49.72 96.912 52.152 103.44 52.152C106.341 52.152 108.603 51.64 110.224 50.616C111.888 49.5493 112.72 48.0987 112.72 46.264C112.72 44.472 112.059 43.0853 110.736 42.104C109.456 41.1227 107.237 40.3333 104.08 39.736L97.68 38.52C93.0293 37.6667 89.7013 36.3227 87.696 34.488C85.7333 32.6107 84.752 29.9227 84.752 26.424C84.752 21.688 86.48 18.104 89.936 15.672C92.9227 13.5387 96.976 12.472 102.096 12.472C108.283 12.472 112.933 13.88 116.048 16.696C118.736 19.1707 120.101 22.6053 120.144 27ZM157.41 44.344H134.626C134.754 47.0747 135.18 49.016 135.906 50.168C137.143 52.0453 139.084 52.984 141.73 52.984C145.015 52.984 147.212 51.6187 148.322 48.888H157.026C156.044 52.216 154.124 54.8613 151.266 56.824C148.45 58.744 145.143 59.704 141.346 59.704C136.183 59.704 132.215 57.976 129.442 54.52C127.01 51.4907 125.794 47.5013 125.794 42.552C125.794 36.536 127.372 31.8853 130.53 28.6C133.303 25.784 136.951 24.376 141.474 24.376C144.93 24.376 147.959 25.2293 150.562 26.936C153.164 28.6427 155.02 31.032 156.13 34.104C157.026 36.4933 157.474 39.3733 157.474 42.744C157.474 43.1707 157.452 43.704 157.41 44.344ZM148.258 38.52C147.831 33.5707 145.548 31.096 141.41 31.096C137.527 31.096 135.308 33.5707 134.754 38.52H148.258ZM191.88 35.064H182.92C182.877 33.6987 182.386 32.7387 181.448 32.184C180.509 31.5867 178.888 31.288 176.583 31.288C173.213 31.288 171.528 32.2693 171.528 34.232C171.528 35.384 172.552 36.2373 174.6 36.792L185.736 39.928C190.173 41.1653 192.392 43.9813 192.392 48.376C192.392 51.832 191.048 54.6267 188.36 56.76C185.842 58.7227 182.216 59.704 177.48 59.704C171.677 59.704 167.517 58.8507 165 57.144C162.525 55.5227 161.202 52.8987 161.032 49.272H169.8C170.056 50.68 170.653 51.6187 171.592 52.088C172.573 52.5573 174.365 52.792 176.968 52.792C181.362 52.792 183.56 51.7467 183.56 49.656C183.56 48.4187 182.578 47.5013 180.616 46.904L170.12 43.704C167.432 42.8933 165.597 41.9547 164.616 40.888C163.336 39.5653 162.696 37.7733 162.696 35.512C162.696 31.8 164.104 28.9413 166.92 26.936C169.394 25.2293 172.637 24.376 176.648 24.376C181.512 24.376 185.352 25.464 188.168 27.64C190.6 29.56 191.837 32.0347 191.88 35.064ZM198.593 13.176H207.425V29.88C209.814 26.2107 213.121 24.376 217.345 24.376C220.332 24.376 222.849 25.2507 224.897 27C227.244 28.92 228.417 31.9707 228.417 36.152V59H219.585V37.944C219.585 33.8907 217.793 31.864 214.209 31.864C212.204 31.864 210.561 32.4827 209.281 33.72C208.044 34.9573 207.425 36.5573 207.425 38.52V59H198.593V13.176ZM265.46 56.76V59H255.86C255.22 58.1893 254.879 57.0373 254.836 55.544C252.489 58.3173 249.076 59.704 244.596 59.704C241.311 59.704 238.665 58.7013 236.66 56.696C235.039 55.0747 234.228 52.8347 234.228 49.976C234.228 45.7093 235.935 42.68 239.348 40.888C240.799 40.12 243.679 39.352 247.988 38.584L254.9 37.304L254.836 34.872C254.793 32.6107 253.087 31.48 249.716 31.48C247.54 31.48 246.004 31.8213 245.108 32.504C244.255 33.144 243.721 34.3387 243.508 36.088H235.06C235.572 28.28 240.393 24.376 249.524 24.376C254.559 24.376 258.185 25.272 260.404 27.064C262.409 28.7707 263.412 31.352 263.412 34.808V53.752C263.412 55.288 264.095 56.2907 265.46 56.76ZM254.9 42.616L248.436 44.088C246.601 44.5147 245.236 45.1333 244.34 45.944C243.487 46.7547 243.06 47.7573 243.06 48.952C243.06 51.384 244.639 52.6 247.796 52.6C252.361 52.6 254.708 50.104 254.836 45.112L254.9 42.616ZM287.47 25.08V30.904H281.518V49.784C281.518 51.0213 281.731 51.8747 282.158 52.344C282.627 52.8133 283.459 53.048 284.654 53.048C285.635 53.048 286.894 52.664 288.43 51.896C288.558 51.8107 288.664 51.7467 288.75 51.704L289.774 57.72C287.086 59.0427 284.27 59.704 281.326 59.704C275.566 59.704 272.686 57.0587 272.686 51.768V30.904H268.334V25.08H272.686V19.448L281.518 14.392V25.08H287.47Z" fill="white"/>
<defs>
<linearGradient id="paint0_linear_10_17" x1="29" y1="0" x2="29" y2="73" gradientUnits="userSpaceOnUse">
<stop stop-color="#276FCC"/>
<stop offset="1" stop-color="#65357D"/>
</linearGradient>
<linearGradient id="paint1_linear_10_17" x1="29" y1="0" x2="29" y2="73" gradientUnits="userSpaceOnUse">
<stop stop-color="#276FCC"/>
<stop offset="1" stop-color="#65357D"/>
</linearGradient>
<linearGradient id="paint2_linear_10_17" x1="29" y1="0" x2="29" y2="73" gradientUnits="userSpaceOnUse">
<stop stop-color="#276FCC"/>
<stop offset="1" stop-color="#65357D"/>
</linearGradient>
<linearGradient id="paint3_linear_10_17" x1="29" y1="0" x2="29" y2="73" gradientUnits="userSpaceOnUse">
<stop stop-color="#276FCC"/>
<stop offset="1" stop-color="#65357D"/>
</linearGradient>
</defs>
</svg>
