<svg width="341" height="134" viewBox="0 0 341 134" fill="none" xmlns="http://www.w3.org/2000/svg">
<path d="M44 6C44 2.68629 46.6863 0 50 0H56C59.3137 0 62 2.68629 62 6V128C62 131.314 59.3137 134 56 134H50C46.6863 134 44 131.314 44 128V6Z" fill="url(#paint0_linear_10_16)"/>
<path d="M13.2426 22.9706C10.8995 20.6274 10.8995 16.8284 13.2426 14.4853L17.4853 10.2426C19.8284 7.89949 23.6274 7.89949 25.9706 10.2426L93.0655 77.3376C95.4087 79.6808 95.4087 83.4797 93.0655 85.8229L88.8229 90.0655C86.4797 92.4087 82.6808 92.4087 80.3376 90.0655L13.2426 22.9706Z" fill="url(#paint1_linear_10_16)"/>
<path d="M80.3376 10.2426C82.6808 7.89949 86.4797 7.89949 88.8229 10.2426L93.0655 14.4853C95.4087 16.8284 95.4087 20.6274 93.0655 22.9706L25.9706 90.0655C23.6274 92.4087 19.8284 92.4087 17.4853 90.0655L13.2426 85.8229C10.8995 83.4797 10.8995 79.6808 13.2426 77.3376L80.3376 10.2426Z" fill="url(#paint2_linear_10_16)"/>
<path d="M100.887 41C104.2 41 106.887 43.6863 106.887 47V53C106.887 56.3137 104.2 59 100.887 59L6 59C2.68629 59 -1.44846e-07 56.3137 0 53L2.62269e-07 47C4.07116e-07 43.6863 2.68629 41 6 41L100.887 41Z" fill="url(#paint3_linear_10_16)"/>
<path d="M169.031 57.5H160.199C159.9 52.8493 156.7 50.524 150.599 50.524C148.167 50.524 146.225 51.0147 144.775 51.996C143.367 52.9773 142.663 54.3 142.663 55.964C142.663 57.5853 143.26 58.8013 144.455 59.612C145.649 60.4227 147.953 61.148 151.367 61.788L158.535 63.132C162.759 63.9427 165.831 65.3293 167.751 67.292C169.671 69.2547 170.631 72.028 170.631 75.612C170.631 80.5187 168.753 84.252 164.999 86.812C161.756 89.0733 157.383 90.204 151.879 90.204C145.607 90.204 140.828 88.7533 137.543 85.852C134.684 83.3347 133.127 79.836 132.871 75.356H142.023C142.364 80.22 145.799 82.652 152.327 82.652C155.228 82.652 157.489 82.14 159.111 81.116C160.775 80.0493 161.607 78.5987 161.607 76.764C161.607 74.972 160.945 73.5853 159.623 72.604C158.343 71.6227 156.124 70.8333 152.967 70.236L146.567 69.02C141.916 68.1667 138.588 66.8227 136.583 64.988C134.62 63.1107 133.639 60.4227 133.639 56.924C133.639 52.188 135.367 48.604 138.823 46.172C141.809 44.0387 145.863 42.972 150.983 42.972C157.169 42.972 161.82 44.38 164.935 47.196C167.623 49.6707 168.988 53.1053 169.031 57.5ZM206.296 74.844H183.512C183.64 77.5747 184.067 79.516 184.792 80.668C186.029 82.5453 187.971 83.484 190.616 83.484C193.901 83.484 196.099 82.1187 197.208 79.388H205.912C204.931 82.716 203.011 85.3613 200.152 87.324C197.336 89.244 194.029 90.204 190.232 90.204C185.069 90.204 181.101 88.476 178.328 85.02C175.896 81.9907 174.68 78.0013 174.68 73.052C174.68 67.036 176.259 62.3853 179.416 59.1C182.189 56.284 185.837 54.876 190.36 54.876C193.816 54.876 196.845 55.7293 199.448 57.436C202.051 59.1427 203.907 61.532 205.016 64.604C205.912 66.9933 206.36 69.8733 206.36 73.244C206.36 73.6707 206.339 74.204 206.296 74.844ZM197.144 69.02C196.717 64.0707 194.435 61.596 190.296 61.596C186.413 61.596 184.195 64.0707 183.64 69.02H197.144ZM240.766 65.564H231.806C231.763 64.1987 231.273 63.2387 230.334 62.684C229.395 62.0867 227.774 61.788 225.47 61.788C222.099 61.788 220.414 62.7693 220.414 64.732C220.414 65.884 221.438 66.7373 223.486 67.292L234.622 70.428C239.059 71.6653 241.278 74.4813 241.278 78.876C241.278 82.332 239.934 85.1267 237.246 87.26C234.729 89.2227 231.102 90.204 226.366 90.204C220.563 90.204 216.403 89.3507 213.886 87.644C211.411 86.0227 210.089 83.3987 209.918 79.772H218.686C218.942 81.18 219.539 82.1187 220.478 82.588C221.459 83.0573 223.251 83.292 225.854 83.292C230.249 83.292 232.446 82.2467 232.446 80.156C232.446 78.9187 231.465 78.0013 229.502 77.404L219.006 74.204C216.318 73.3933 214.483 72.4547 213.502 71.388C212.222 70.0653 211.582 68.2733 211.582 66.012C211.582 62.3 212.99 59.4413 215.806 57.436C218.281 55.7293 221.523 54.876 225.534 54.876C230.398 54.876 234.238 55.964 237.054 58.14C239.486 60.06 240.723 62.5347 240.766 65.564ZM247.48 43.676H256.312V60.38C258.701 56.7107 262.008 54.876 266.232 54.876C269.218 54.876 271.736 55.7507 273.784 57.5C276.13 59.42 277.304 62.4707 277.304 66.652V89.5H268.472V68.444C268.472 64.3907 266.68 62.364 263.096 62.364C261.09 62.364 259.448 62.9827 258.168 64.22C256.93 65.4573 256.312 67.0573 256.312 69.02V89.5H247.48V43.676ZM314.347 87.26V89.5H304.747C304.107 88.6893 303.765 87.5373 303.723 86.044C301.376 88.8173 297.963 90.204 293.483 90.204C290.197 90.204 287.552 89.2013 285.547 87.196C283.925 85.5747 283.115 83.3347 283.115 80.476C283.115 76.2093 284.821 73.18 288.235 71.388C289.685 70.62 292.565 69.852 296.875 69.084L303.787 67.804L303.723 65.372C303.68 63.1107 301.973 61.98 298.603 61.98C296.427 61.98 294.891 62.3213 293.995 63.004C293.141 63.644 292.608 64.8387 292.395 66.588H283.947C284.459 58.78 289.28 54.876 298.411 54.876C303.445 54.876 307.072 55.772 309.291 57.564C311.296 59.2707 312.299 61.852 312.299 65.308V84.252C312.299 85.788 312.981 86.7907 314.347 87.26ZM303.787 73.116L297.323 74.588C295.488 75.0147 294.123 75.6333 293.227 76.444C292.373 77.2547 291.947 78.2573 291.947 79.452C291.947 81.884 293.525 83.1 296.683 83.1C301.248 83.1 303.595 80.604 303.723 75.612L303.787 73.116ZM336.356 55.58V61.404H330.404V80.284C330.404 81.5213 330.617 82.3747 331.044 82.844C331.513 83.3133 332.345 83.548 333.54 83.548C334.521 83.548 335.78 83.164 337.316 82.396C337.444 82.3107 337.551 82.2467 337.636 82.204L338.66 88.22C335.972 89.5427 333.156 90.204 330.212 90.204C324.452 90.204 321.572 87.5587 321.572 82.268V61.404H317.22V55.58H321.572V49.948L330.404 44.892V55.58H336.356Z" fill="black"/>
<defs>
<linearGradient id="paint0_linear_10_16" x1="53.4433" y1="0" x2="53.4433" y2="134" gradientUnits="userSpaceOnUse">
<stop stop-color="#001583"/>
<stop offset="1" stop-color="#6136FF"/>
</linearGradient>
<linearGradient id="paint1_linear_10_16" x1="53.4433" y1="0" x2="53.4433" y2="134" gradientUnits="userSpaceOnUse">
<stop stop-color="#001583"/>
<stop offset="1" stop-color="#6136FF"/>
</linearGradient>
<linearGradient id="paint2_linear_10_16" x1="53.4433" y1="0" x2="53.4433" y2="134" gradientUnits="userSpaceOnUse">
<stop stop-color="#001583"/>
<stop offset="1" stop-color="#6136FF"/>
</linearGradient>
<linearGradient id="paint3_linear_10_16" x1="53.4433" y1="0" x2="53.4433" y2="134" gradientUnits="userSpaceOnUse">
<stop stop-color="#001583"/>
<stop offset="1" stop-color="#6136FF"/>
</linearGradient>
</defs>
</svg>
